Coordinates
version=1
nRows=5
nColumns=63
inDegrees=yes

Units are S.I. units (second, meters, Newtons, ...)
If the header above contains a line with 'inDegrees', this indicates whether rotational values are in degrees (yes) or radians (no).

endheader
time	pelvis_tilt	pelvis_list	pelvis_rotation	pelvis_tx	pelvis_ty	pelvis_tz	hip_flexion_r	hip_adduction_r	hip_rotation_r	knee_angle_r	knee_angle_r_beta	ankle_angle_r	subtalar_angle_r	mtp_angle_r	hip_flexion_l	hip_adduction_l	hip_rotation_l	knee_angle_l	knee_angle_l_beta	ankle_angle_l	subtalar_angle_l	mtp_angle_l	L5_S1_Flex_Ext	L5_S1_Lat_Bending	L5_S1_axial_rotation	L4_L5_Flex_Ext	L4_L5_Lat_Bending	L4_L5_axial_rotation	L3_L4_Flex_Ext	L3_L4_Lat_Bending	L3_L4_axial_rotation	L2_L3_Flex_Ext	L2_L3_Lat_Bending	L2_L3_axial_rotation	L1_L2_Flex_Ext	L1_L2_Lat_Bending	L1_L2_axial_rotation	L1_T12_Flex_Ext	L1_T12_Lat_Bending	L1_T12_axial_rotation	Abs_r3	Abs_r2	Abs_r1	Abs_t1	Abs_t2	neck_flexion	neck_bending	neck_rotation	arm_flex_r	arm_add_r	arm_rot_r	elbow_flex_r	pro_sup_r	wrist_flex_r	wrist_dev_r	arm_flex_l	arm_add_l	arm_rot_l	elbow_flex_l	pro_sup_l	wrist_flex_l	wrist_dev_l
      0.00000000	     -2.87788201	     -4.00127918	     99.03875427	      0.16346582	      0.91731873	      0.49228125	      4.84851953	     -6.58562233	    -22.69231637	     14.60590370	      0.25492111	     32.13779592	     10.41939220	      0.00000000	      3.65602271	      4.11853235	     25.32374831	      3.97853635	      0.06943856	     20.97976830	    -15.65632810	      0.00000000	      0.01578689	     -0.14198580	     -1.54263987	      0.02931783	     -0.18884111	     -1.63905486	      0.02593628	     -0.34522427	     -1.63905486	      0.01804283	     -0.34522427	     -1.34980988	      0.01465970	     -0.28953744	     -1.25339489	      0.00902063	     -0.21993600	     -1.15697990	      0.11276416	     -1.60617173	     -8.57970015	      0.00000000	      0.00000000	     21.46409395	      2.56418456	      2.68685403	     13.39962305	     -3.51387035	     43.96901756	     35.47602138	     56.20937081	     -3.51159133	      7.78817297	     19.82370654	     -2.31765430	     68.28196756	     29.98313930	     65.59341630	     -7.07517548	     -7.20153546
      0.01694915	     -2.64714584	     -3.93766984	     98.39062350	      0.16388358	      0.91706254	      0.48893691	      4.48534437	     -6.21149525	    -22.29579489	     14.10946006	      0.24625653	     32.59108608	     11.05655859	      0.00000000	      3.48025801	      3.98232683	     24.11909479	      4.77891087	      0.08340773	     19.39719455	    -15.64850757	      0.00000000	      0.03943626	     -0.10911607	     -1.47582384	      0.07323708	     -0.14512437	     -1.56806283	      0.06478983	     -0.26530480	     -1.56806283	      0.04507170	     -0.26530480	     -1.29134586	      0.03662051	     -0.22250948	     -1.19910687	      0.02253388	     -0.16902079	     -1.10686788	      0.28168926	     -1.23434276	     -8.20808944	      0.00000000	      0.00000000	     22.20422881	      2.79023112	      3.06510432	     12.95943466	     -3.59376605	     43.31490991	     36.43771740	     57.69714507	     -5.19965335	      7.01340732	     17.94471500	     -2.37729426	     62.81592620	     31.48574923	     61.85021925	     -8.85923607	     -6.82481894
      0.03389831	     -2.49674747	     -3.77962010	     97.98439812	      0.16416887	      0.91706509	      0.48634982	      4.01161764	     -5.92398292	    -22.10306655	     13.59134495	      0.23721372	     32.89202430	     11.73312233	      0.00000000	      3.28718881	      3.90122176	     23.12204577	      5.44037479	      0.09495245	     18.74866395	    -15.38290130	      0.00000000	      0.04211360	     -0.08941698	     -1.41450483	      0.07820917	     -0.11892458	     -1.50291138	      0.06918844	     -0.21740845	     -1.50291138	      0.04813164	     -0.21740845	     -1.23769173	      0.03910669	     -0.18233911	     -1.14928517	      0.02406371	     -0.13850690	     -1.06087862	      0.30081325	     -1.01150277	     -7.86705152	      0.00000000	      0.00000000	     22.86869480	      3.00824522	      3.31538258	     12.53269806	     -3.53677445	     42.22759901	     36.94751742	     59.96759551	     -5.85063894	      6.56431756	     16.69953057	     -2.31631550	     58.85178166	     32.58683244	     57.60736603	     -8.39578857	     -6.13791800
      0.05084746	     -2.42742251	     -3.60231242	     97.51534143	      0.16451348	      0.91717201	      0.48434624	      3.67254293	     -5.74384527	    -21.61516537	     13.29073012	      0.23196700	     33.10791903	     12.09546308	      0.00000000	      3.03806463	      3.85258738	     22.02066667	      5.79450605	      0.10113321	     18.74775771	    -14.99234636	      0.00000000	      0.04142717	     -0.08345394	     -1.29776809	      0.07693439	     -0.11099374	     -1.37887859	      0.06806069	     -0.20290992	     -1.37887859	      0.04734711	     -0.20290992	     -1.13554708	      0.03846927	     -0.17017928	     -1.05443657	      0.02367148	     -0.12927016	     -0.97332607	      0.29591010	     -0.94404769	     -7.21779678	      0.00000000	      0.00000000	     23.33225869	      2.81918996	      2.88580125	     12.16583801	     -3.61770336	     41.55946247	     37.42080953	     61.64255580	     -6.43993356	      6.41404720	     16.21145144	     -2.26275621	     57.59383184	     33.34402987	     53.99934694	     -8.80697847	     -5.84601079
      0.06779661	     -2.35170823	     -3.73134043	     97.53115187	      0.16460357	      0.91705492	      0.48323825	      3.69871562	     -5.57423248	    -21.03999709	     13.09692251	      0.22858442	     33.15322548	     11.53142673	      0.00000000	      3.27768142	      3.83289417	     21.16927831	      6.21793801	      0.10852349	     19.43056131	    -13.91671565	      0.00000000	      0.08425129	     -0.08364824	     -1.26391578	      0.15646307	     -0.11125216	     -1.34291052	      0.13841645	     -0.20338234	     -1.34291052	      0.09629080	     -0.20338234	     -1.10592631	      0.07823575	     -0.17057550	     -1.02693157	      0.04814119	     -0.12957113	     -0.94793684	      0.60179854	     -0.94624567	     -7.02952040	      0.00000000	      0.00000000	     23.75522221	      2.70864109	      2.71860510	     12.01959799	     -3.66287897	     41.66584192	     37.44452897	     61.41065669	     -6.53415503	      6.35762628	     16.12819211	     -2.34366708	     57.31720899	     33.72859240	     53.67597231	     -8.82343433	     -5.45379393
